<svg width="25" height="25" viewBox="0 0 40 40" fill="none" xmlns="http://www.w3.org/2000/svg"><path d="M30.7643 22.3549C30.748 19.5712 32.0092 17.4733 34.5561 15.9264C33.1316 13.8856 30.9765 12.7632 28.1358 12.5469C25.446 12.3346 22.5032 14.1142 21.4257 14.1142C20.2869 14.1142 17.6829 12.6203 15.6339 12.6203C11.4054 12.6856 6.91162 15.9917 6.91162 22.7181C6.91162 24.7058 7.27488 26.7589 8.0014 28.8731C8.97281 31.6568 12.4748 38.4771 16.1278 38.3669C18.038 38.322 19.389 37.0118 21.8747 37.0118C24.2869 37.0118 25.5358 38.3669 27.6664 38.3669C31.3521 38.3138 34.5194 32.1139 35.4418 29.3221C30.499 26.9915 30.7643 22.4977 30.7643 22.3549ZM26.4746 9.90608C28.5439 7.44897 28.3562 5.21227 28.295 4.4082C26.4664 4.51432 24.3522 5.65308 23.1481 7.05306C21.8216 8.55508 21.042 10.4122 21.2094 12.506C23.1848 12.6571 24.9889 11.6407 26.4746 9.90608Z" fill="white"></path></svg>