<svg width="25" height="25" viewBox="0 0 35 35" fill="none" xmlns="http://www.w3.org/2000/svg"><path d="M19.1285 18.9043L4.88708 33.1475C5.15946 33.2518 5.45306 33.3067 5.76258 33.3067C6.31441 33.3067 6.88923 33.1439 7.47466 32.8185L23.8438 23.6267L19.1285 18.9043Z" fill="white"></path><path d="M25.2519 22.834L30.6889 19.776C31.7501 19.1817 32.332 18.3398 32.332 17.406C32.332 16.4739 31.7501 15.6302 30.6906 15.0359L25.7684 12.2715L20.2271 17.811L25.2519 22.834Z" fill="white"></path><path d="M19.1291 16.7103L24.3591 11.4804L7.46641 1.98608C6.34684 1.38119 5.29801 1.29629 4.3783 1.95778L19.1291 16.7103Z" fill="white"></path><path d="M3.47142 3.24219C3.35823 3.59062 3.29456 3.97973 3.29456 4.40598V30.4144C3.29456 31.0883 3.44312 31.6684 3.71196 32.13L18.033 17.8073L3.47142 3.24219Z" fill="white"></path></svg>